<svg width="20" height="4" viewBox="0 0 20 4" fill="none" xmlns="http://www.w3.org/2000/svg">
<path d="M2.875 0C3.97957 0 4.875 0.895431 4.875 2C4.875 3.10457 3.97957 4 2.875 4C1.77043 4 0.875 3.10457 0.875 2C0.875 0.895431 1.77043 0 2.875 0ZM9.875 0C10.9796 0 11.875 0.895431 11.875 2C11.875 3.10457 10.9796 4 9.875 4C8.77043 4 7.875 3.10457 7.875 2C7.875 0.895431 8.77043 0 9.875 0ZM17.125 0C18.2296 0 19.125 0.895431 19.125 2C19.125 3.10457 18.2296 4 17.125 4C16.0204 4 15.125 3.10457 15.125 2C15.125 0.895431 16.0204 0 17.125 0Z" fill="white"/>
</svg>
